<svg width="16" height="19" viewBox="0 0 16 19" fill="none" xmlns="http://www.w3.org/2000/svg">
<path d="M7.92026 18.0439C8.35971 18.0439 8.62338 17.7451 8.62338 17.2969V15.4951L9.95053 16.2861C10.3021 16.5146 10.68 16.4971 10.9085 16.1455C11.1019 15.8291 11.014 15.4512 10.6449 15.2314L8.62338 14.0625V12.9727L8.43002 9.94922L10.9876 11.6191L11.9281 12.1553L11.9369 14.4844C11.9369 14.915 12.2269 15.1963 12.5872 15.1787C13.0091 15.1611 13.2113 14.8447 13.1849 14.4229L13.1585 12.8672L14.7318 13.7812C15.1185 14.0098 15.514 13.9131 15.7249 13.5439C15.9271 13.166 15.8128 12.7617 15.4437 12.5508L13.8705 11.6455L15.2328 10.8809C15.6019 10.7051 15.7777 10.3535 15.5843 9.99316C15.3997 9.66797 15.0306 9.5625 14.6527 9.76465L12.6312 10.9248L11.6908 10.3799L8.94858 9.02637L11.6908 7.67285L12.6312 7.12793L14.6527 8.28809C15.0218 8.49902 15.4085 8.38477 15.5843 8.05957C15.7777 7.69922 15.6019 7.34766 15.224 7.16309L13.8792 6.40723L15.4437 5.50195C15.8304 5.28223 15.9359 4.89551 15.7249 4.50879C15.514 4.15723 15.1185 4.04297 14.7318 4.27148L13.1585 5.17676L13.1849 3.62988C13.2113 3.20801 13.0003 2.88281 12.5872 2.87402C12.2269 2.86523 11.9369 3.1377 11.9369 3.55957L11.9281 5.89746L10.9876 6.43359L8.43002 8.1123L8.62338 5.08008V3.99023L10.6449 2.82129C11.014 2.60156 11.0931 2.21484 10.9085 1.90723C10.6888 1.55566 10.3021 1.5293 9.95053 1.7666L8.62338 2.55762V0.755859C8.62338 0.307617 8.35971 0 7.92026 0C7.49838 0 7.20834 0.307617 7.20834 0.755859V2.55762L5.87241 1.7666C5.52084 1.5293 5.1517 1.55566 4.92319 1.90723C4.72983 2.21484 4.81772 2.60156 5.19565 2.82129L7.20834 3.99023V5.08008L7.4017 8.12109L4.85287 6.43359L3.91244 5.88867L3.90366 3.55957C3.90366 3.1377 3.61362 2.86523 3.25326 2.87402C2.83139 2.8916 2.62045 3.20801 2.65561 3.62988L2.67319 5.17676L1.09994 4.27148C0.730803 4.05176 0.317717 4.15723 0.10678 4.50879C-0.112947 4.89551 0.0188893 5.29102 0.38803 5.50195L1.96127 6.40723L0.607756 7.16309C0.238616 7.34766 0.0628347 7.68164 0.256194 8.06836C0.423186 8.38477 0.809905 8.49902 1.18783 8.28809L3.20932 7.12793L4.14096 7.67285L6.89194 9.02637L4.14975 10.3799L3.20053 10.9248L1.17905 9.76465C0.809905 9.55371 0.431975 9.66797 0.264983 9.98438C0.0716237 10.3711 0.238616 10.6963 0.607756 10.8809L1.96127 11.6455L0.396819 12.5508C0.0188893 12.7617 -0.104158 13.1748 0.10678 13.5352C0.326507 13.9219 0.730803 14.001 1.09994 13.7812L2.67319 12.8848L2.64682 14.4229C2.62045 14.8447 2.83139 15.1699 3.25326 15.1787C3.61362 15.1875 3.90366 14.915 3.90366 14.4844L3.92123 12.1553L4.85287 11.6191L7.4017 9.94043L7.20834 12.9727V14.0625L5.19565 15.2314C4.81772 15.4512 4.72983 15.8291 4.92319 16.1455C5.1517 16.4971 5.52084 16.5146 5.87241 16.2861L7.20834 15.4863V17.2969C7.20834 17.7363 7.49838 18.0439 7.92026 18.0439Z" fill="#626B7D"/>
</svg>
