<svg width="16" height="16" viewBox="0 0 16 16" fill="none" xmlns="http://www.w3.org/2000/svg">
<path d="M3.11236 14H11.9535C13.3467 14 14.0722 13.2809 14.0722 11.9069V4.0931C14.0722 2.7191 13.3467 2 11.9535 2H3.11236C1.72552 2 1 2.71268 1 4.0931V11.9069C1 13.2809 1.72552 14 3.11236 14ZM3.10594 12.7223C2.57303 12.7223 2.27769 12.4462 2.27769 11.8812V5.97432C2.27769 5.40931 2.57303 5.13323 3.10594 5.13323H11.9599C12.4928 5.13323 12.7881 5.40931 12.7881 5.97432V11.8812C12.7881 12.4462 12.4928 12.7223 11.9599 12.7223H3.10594ZM6.29695 7.34831H6.67576C6.9069 7.34831 6.98395 7.27769 6.98395 7.05297V6.67416C6.98395 6.44302 6.9069 6.37239 6.67576 6.37239H6.29695C6.06581 6.37239 5.98876 6.44302 5.98876 6.67416V7.05297C5.98876 7.27769 6.06581 7.34831 6.29695 7.34831ZM8.39647 7.34831H8.77528C9 7.34831 9.07705 7.27769 9.07705 7.05297V6.67416C9.07705 6.44302 9 6.37239 8.77528 6.37239H8.39647C8.16533 6.37239 8.08828 6.44302 8.08828 6.67416V7.05297C8.08828 7.27769 8.16533 7.34831 8.39647 7.34831ZM10.4896 7.34831H10.8684C11.0995 7.34831 11.1766 7.27769 11.1766 7.05297V6.67416C11.1766 6.44302 11.0995 6.37239 10.8684 6.37239H10.4896C10.2648 6.37239 10.1878 6.44302 10.1878 6.67416V7.05297C10.1878 7.27769 10.2648 7.34831 10.4896 7.34831ZM4.20385 9.41573H4.57624C4.80738 9.41573 4.88443 9.3451 4.88443 9.11396V8.73515C4.88443 8.51043 4.80738 8.43981 4.57624 8.43981H4.20385C3.97271 8.43981 3.89567 8.51043 3.89567 8.73515V9.11396C3.89567 9.3451 3.97271 9.41573 4.20385 9.41573ZM6.29695 9.41573H6.67576C6.9069 9.41573 6.98395 9.3451 6.98395 9.11396V8.73515C6.98395 8.51043 6.9069 8.43981 6.67576 8.43981H6.29695C6.06581 8.43981 5.98876 8.51043 5.98876 8.73515V9.11396C5.98876 9.3451 6.06581 9.41573 6.29695 9.41573ZM8.39647 9.41573H8.77528C9 9.41573 9.07705 9.3451 9.07705 9.11396V8.73515C9.07705 8.51043 9 8.43981 8.77528 8.43981H8.39647C8.16533 8.43981 8.08828 8.51043 8.08828 8.73515V9.11396C8.08828 9.3451 8.16533 9.41573 8.39647 9.41573ZM10.4896 9.41573H10.8684C11.0995 9.41573 11.1766 9.3451 11.1766 9.11396V8.73515C11.1766 8.51043 11.0995 8.43981 10.8684 8.43981H10.4896C10.2648 8.43981 10.1878 8.51043 10.1878 8.73515V9.11396C10.1878 9.3451 10.2648 9.41573 10.4896 9.41573ZM4.20385 11.4767H4.57624C4.80738 11.4767 4.88443 11.4061 4.88443 11.1814V10.8026C4.88443 10.5714 4.80738 10.5008 4.57624 10.5008H4.20385C3.97271 10.5008 3.89567 10.5714 3.89567 10.8026V11.1814C3.89567 11.4061 3.97271 11.4767 4.20385 11.4767ZM6.29695 11.4767H6.67576C6.9069 11.4767 6.98395 11.4061 6.98395 11.1814V10.8026C6.98395 10.5714 6.9069 10.5008 6.67576 10.5008H6.29695C6.06581 10.5008 5.98876 10.5714 5.98876 10.8026V11.1814C5.98876 11.4061 6.06581 11.4767 6.29695 11.4767ZM8.39647 11.4767H8.77528C9 11.4767 9.07705 11.4061 9.07705 11.1814V10.8026C9.07705 10.5714 9 10.5008 8.77528 10.5008H8.39647C8.16533 10.5008 8.08828 10.5714 8.08828 10.8026V11.1814C8.08828 11.4061 8.16533 11.4767 8.39647 11.4767Z" fill="#626B7D"/>
</svg>
