<svg width="19" height="19" viewBox="0 0 19 19" fill="none" xmlns="http://www.w3.org/2000/svg">
<path d="M9.0791 18.1582C14.0449 18.1582 18.1582 14.0537 18.1582 9.0791C18.1582 4.11328 14.0449 0 9.07031 0C4.10449 0 0 4.11328 0 9.0791C0 14.0537 4.11328 18.1582 9.0791 18.1582ZM9.0791 16.374C5.03613 16.374 1.79297 13.1221 1.79297 9.0791C1.79297 5.03613 5.02734 1.79297 9.07031 1.79297C13.1133 1.79297 16.3652 5.03613 16.374 9.0791C16.374 13.1221 13.1221 16.374 9.0791 16.374ZM4.8252 5.7832C4.75488 6.17871 4.69336 6.70605 4.69336 7.05762C4.69336 9.99316 6.45117 11.9355 9.12305 11.9355C10.4414 11.9355 11.2236 11.3467 11.6104 10.916C11.9268 11.3555 12.1025 11.8389 12.3135 12.4893C12.3662 12.6738 12.5068 12.7529 12.6475 12.7529C12.9463 12.7529 13.1924 12.4893 13.1924 12.1377C13.1924 11.5928 12.4102 10.6523 11.9971 10.2744C10.2656 8.68359 7.65527 9.63281 7.00488 7.88379C6.95215 7.76074 7.08398 7.66406 7.20703 7.76953C8.63965 8.99121 10.3008 8.01562 11.9707 9.53613C12.1201 9.67676 12.2959 9.60645 12.3311 9.45703C12.3486 9.33398 12.3574 9.1582 12.3574 8.99121C12.3574 7.08398 11.0391 6.13477 9.14062 6.13477C8.50781 6.13477 7.76953 6.29297 7.19824 6.29297C6.58301 6.29297 5.88867 6.23145 5.31738 5.65137C5.13281 5.47559 4.87793 5.50195 4.8252 5.7832Z" fill="#626B7D"/>
</svg>
