<svg width="18" height="19" viewBox="0 0 18 19" fill="none" xmlns="http://www.w3.org/2000/svg">
<path d="M9 18.1582C13.9226 18.1582 18 14.0537 18 9.0791C18 4.11328 13.9226 0 8.99129 0C4.06873 0 0 4.11328 0 9.0791C0 14.0537 4.07744 18.1582 9 18.1582ZM6.60407 8.40234L5.71539 7.08398C5.21878 6.33691 4.41723 6.05566 3.60697 6.45117L2.9274 6.79395C2.3698 7.06641 2.14327 7.49707 2.14327 8.28809C2.14327 8.91211 1.96031 9.21094 1.59439 9.21094C1.52469 9.21094 1.45499 9.20215 1.394 9.18457C1.394 9.14941 1.394 9.11426 1.394 9.0791C1.394 4.88672 4.83543 1.40625 8.99129 1.40625C9.59245 1.40625 10.1762 1.48535 10.7425 1.61719C10.4637 2.12695 9.99322 2.39062 9.99322 3.11133C9.99322 4.4209 11.7183 4.32422 11.7183 5.7832C11.7183 6.66211 11.03 7.0752 9.51404 7.0752C8.63408 7.0752 8.03291 7.54102 8.03291 8.23535C8.03291 8.70117 8.26815 9.01758 8.78219 9.29004C9.05227 9.41309 9.15683 9.55371 9.15683 9.74707C9.15683 9.97559 8.99129 10.0986 8.7212 10.0986C8.14618 10.0986 7.3969 9.58887 6.60407 8.40234ZM9 16.752C5.25363 16.752 2.091 13.9307 1.49855 10.3096C1.54211 10.3096 1.58567 10.3096 1.63795 10.3096C2.56147 10.3096 3.18877 9.50977 3.18877 8.28809C3.18877 7.91016 3.24976 7.78711 3.51113 7.66406L4.06873 7.40039C4.36496 7.25098 4.63504 7.36523 4.80929 7.62891L5.7938 9.08789C6.77832 10.5381 7.78025 11.127 8.69506 11.127C9.58374 11.127 10.1239 10.582 10.1239 9.71191C10.1239 9.21094 9.87125 8.77148 9.46176 8.50781C9.32236 8.41113 9.24395 8.36719 9.24395 8.2793C9.23524 8.18262 9.32236 8.13867 9.47047 8.13867C11.6399 8.13867 12.7725 7.33887 12.7725 5.7832C12.7725 3.72656 11.0387 3.6123 11.0387 3.08496C11.0387 2.7334 11.5005 2.5752 11.7706 1.95117C14.5847 3.08496 16.606 5.87109 16.606 9.0791C16.606 9.89648 16.4753 10.6963 16.2314 11.4346C15.7783 11.0654 15.4124 10.9072 14.9942 10.9072C14.6544 10.9072 14.4714 10.9951 14.2711 11.0566C14.1055 11.1182 14.0271 11.0479 14.001 10.8896C13.9051 10.2305 13.5044 9.98438 12.8596 9.98438H12.4066C11.8838 9.98438 11.4569 10.2568 11.1346 10.7578L10.9952 10.9775C10.7686 11.3291 10.577 11.6104 10.394 11.7949C10.211 11.9531 10.0629 12.0322 9.70571 12.1465L9.30494 12.2695C8.70378 12.4629 8.5121 12.999 8.67764 13.5967L9.10455 15.082C9.25266 15.627 9.57502 15.9082 10.0978 15.9082C10.3243 15.9082 10.6031 15.8291 10.8993 15.6885L11.03 15.6182C11.2217 15.5215 11.3698 15.4863 11.5266 15.4863C11.8577 15.4863 12.0929 15.6533 12.3369 15.9521C11.3262 16.4619 10.1936 16.752 9 16.752ZM11.5092 14.4668C11.2391 14.4668 10.9255 14.5635 10.5857 14.7041L10.3243 14.8008C10.1849 14.8535 10.0891 14.8447 10.0542 14.7129L9.67957 13.4473C9.64472 13.3154 9.697 13.2363 9.82769 13.1924C10.4898 12.999 10.847 12.7441 11.0736 12.5244C11.4221 12.1816 11.7096 11.6982 11.9622 11.3291C12.1191 11.083 12.241 10.9951 12.3979 10.9951H12.8509C12.9729 10.9951 12.999 11.0391 13.0252 11.1357C13.1471 11.751 13.4782 12.1113 14.0794 12.1113C14.515 12.1113 14.7241 11.9268 14.9942 11.9268C15.212 11.9268 15.456 12.0674 15.8306 12.4277C15.2381 13.6406 14.3233 14.6865 13.2168 15.4424C12.8248 14.9414 12.3282 14.4668 11.5092 14.4668Z" fill="#626B7D"/>
</svg>
