<svg width="25" height="19" viewBox="0 0 25 19" fill="none" xmlns="http://www.w3.org/2000/svg">
<path fill-rule="evenodd" clip-rule="evenodd" d="M17.8066 10.3749C19.3635 11.4317 20.4544 12.8635 20.4544 14.7726V18.1817H23.8635C24.4885 18.1817 24.9998 17.6703 24.9998 17.0453V14.7726C24.9998 12.2953 20.943 10.8294 17.8066 10.3749Z" fill="#626B7D"/>
<path d="M9.09086 9.09091C11.6013 9.09091 13.6363 7.05584 13.6363 4.54545C13.6363 2.03507 11.6013 0 9.09086 0C6.58048 0 4.54541 2.03507 4.54541 4.54545C4.54541 7.05584 6.58048 9.09091 9.09086 9.09091Z" fill="#626B7D"/>
<path fill-rule="evenodd" clip-rule="evenodd" d="M15.9093 9.09091C18.4207 9.09091 20.4548 7.05682 20.4548 4.54545C20.4548 2.03409 18.4207 0 15.9093 0C15.3752 0 14.8752 0.113636 14.3979 0.272727C15.3411 1.44318 15.9093 2.93182 15.9093 4.54545C15.9093 6.15909 15.3411 7.64773 14.3979 8.81818C14.8752 8.97727 15.3752 9.09091 15.9093 9.09091Z" fill="#626B7D"/>
<path fill-rule="evenodd" clip-rule="evenodd" d="M9.09091 10.2273C6.05682 10.2273 0 11.75 0 14.7727V17.0455C0 17.6705 0.511364 18.1818 1.13636 18.1818H17.0455C17.6705 18.1818 18.1818 17.6705 18.1818 17.0455V14.7727C18.1818 11.75 12.125 10.2273 9.09091 10.2273Z" fill="#626B7D"/>
</svg>
