<svg width="21" height="15" viewBox="0 0 21 15" fill="none" xmlns="http://www.w3.org/2000/svg">
<path d="M1.36801 6.31055C1.55258 6.5127 1.84262 6.50391 2.03598 6.29297C4.20688 3.99902 7.06332 2.78613 10.2538 2.78613C13.4705 2.78613 16.3358 3.99902 18.4979 6.31055C18.6825 6.49512 18.9637 6.48633 19.1483 6.29297L20.3788 5.05371C20.5545 4.87793 20.5545 4.64941 20.4139 4.48242C18.2957 1.87207 14.3495 0 10.2538 0C6.16684 0 2.21176 1.86328 0.102385 4.48242C-0.03824 4.64941 -0.03824 4.87793 0.128752 5.05371L1.36801 6.31055ZM5.04184 9.9668C5.25278 10.1689 5.53403 10.1514 5.73617 9.93164C6.80844 8.7627 8.52231 7.93652 10.2625 7.94531C12.0116 7.93652 13.7254 8.78027 14.8241 9.95801C15.0086 10.1689 15.2723 10.1602 15.4745 9.95801L16.8543 8.60449C17.0213 8.44629 17.0389 8.22656 16.8895 8.05078C15.5184 6.38965 13.0135 5.19434 10.2625 5.19434C7.50278 5.19434 4.99789 6.38965 3.6268 8.05078C3.47739 8.22656 3.49496 8.4375 3.66196 8.60449L5.04184 9.9668ZM10.2625 14.8359C10.4735 14.8359 10.658 14.7393 11.0184 14.3965L13.1717 12.3223C13.3299 12.1729 13.3651 11.9268 13.2245 11.751C12.6092 10.9688 11.493 10.3359 10.2625 10.3359C8.99692 10.3359 7.86313 10.9951 7.25668 11.8213C7.15121 11.9795 7.20395 12.1729 7.35336 12.3223L9.50668 14.3965C9.85824 14.7305 10.0516 14.8359 10.2625 14.8359Z" fill="#626B7D"/>
</svg>
