<svg width="166" height="30" viewBox="0 0 166 30" fill="none" xmlns="http://www.w3.org/2000/svg">
<path d="M45.72 23.06L42.18 11.16C42.0867 10.8533 41.9867 10.6333 41.88 10.5C41.7733 10.3533 41.5867 10.22 41.32 10.1L41.08 10V9.8H46.38V10L45.96 10.16C45.6533 10.28 45.4467 10.4267 45.34 10.6C45.2333 10.7733 45.2267 11.0133 45.32 11.32L47.5 19.64L49.86 12.66L49.4 11.24C49.3067 10.96 49.22 10.7467 49.14 10.6C49.06 10.4533 48.9267 10.3333 48.74 10.24L48.3 10V9.8H53.32V10L52.7 10.24C52.4333 10.3333 52.28 10.4733 52.24 10.66C52.2133 10.8333 52.2467 11.06 52.34 11.34L54.88 19.84L57.28 11.5C57.3733 11.18 57.4067 10.9 57.38 10.66C57.3533 10.42 57.1867 10.2467 56.88 10.14L56.46 10V9.8H59.24V10L58.72 10.2C58.4533 10.2933 58.2667 10.44 58.16 10.64C58.0533 10.84 57.96 11.0867 57.88 11.38L54.56 23.06H53.18L50.18 13.66L47.1 23.06H45.72ZM59.878 23V22.8L60.118 22.72C60.598 22.56 60.838 22.2267 60.838 21.72V11.04C60.838 10.76 60.7913 10.5533 60.698 10.42C60.6046 10.2867 60.4246 10.1867 60.158 10.12L59.858 10.04V9.84L63.378 8.98L63.698 9.16L63.618 11.98V14.48C64.0846 14.0933 64.5846 13.7667 65.118 13.5C65.6646 13.22 66.2646 13.08 66.918 13.08C67.7846 13.08 68.4713 13.3267 68.978 13.82C69.498 14.3133 69.758 15.0733 69.758 16.1V21.74C69.758 22.0067 69.8113 22.22 69.918 22.38C70.0246 22.54 70.2113 22.66 70.478 22.74L70.638 22.8V23H65.958V22.8L66.198 22.74C66.678 22.58 66.918 22.24 66.918 21.72V15.44C66.918 14.9067 66.8246 14.54 66.638 14.34C66.4646 14.14 66.1513 14.04 65.698 14.04C65.4046 14.04 65.0846 14.1 64.738 14.22C64.3913 14.3267 64.038 14.52 63.678 14.8V21.76C63.678 22.28 63.918 22.6133 64.398 22.76L64.558 22.8V23H59.878ZM76.4395 13.08C77.3062 13.08 78.0462 13.26 78.6595 13.62C79.2729 13.9667 79.7395 14.4467 80.0595 15.06C80.3929 15.66 80.5595 16.3467 80.5595 17.12C80.5595 17.2667 80.5529 17.42 80.5395 17.58C80.5262 17.7267 80.4995 17.86 80.4595 17.98H74.4995C74.5129 19.42 74.7662 20.46 75.2595 21.1C75.7662 21.7267 76.5129 22.04 77.4995 22.04C78.1662 22.04 78.7062 21.9333 79.1195 21.72C79.5329 21.5067 79.9195 21.1933 80.2795 20.78L80.4795 20.96C80.0662 21.6933 79.5129 22.2667 78.8195 22.68C78.1395 23.0933 77.3195 23.3 76.3595 23.3C75.4129 23.3 74.5729 23.1 73.8395 22.7C73.1062 22.2867 72.5329 21.7 72.1195 20.94C71.7062 20.18 71.4995 19.2733 71.4995 18.22C71.4995 17.1267 71.7395 16.2 72.2195 15.44C72.6995 14.6667 73.3129 14.08 74.0595 13.68C74.8195 13.28 75.6129 13.08 76.4395 13.08ZM76.3795 13.48C75.9929 13.48 75.6595 13.6 75.3795 13.84C75.1129 14.0667 74.8995 14.48 74.7395 15.08C74.5929 15.6667 74.5129 16.5 74.4995 17.58H77.9195C78.0529 16.1267 77.9995 15.08 77.7595 14.44C77.5195 13.8 77.0595 13.48 76.3795 13.48ZM86.5763 13.08C87.4429 13.08 88.1829 13.26 88.7963 13.62C89.4096 13.9667 89.8763 14.4467 90.1963 15.06C90.5296 15.66 90.6963 16.3467 90.6963 17.12C90.6963 17.2667 90.6896 17.42 90.6763 17.58C90.6629 17.7267 90.6363 17.86 90.5963 17.98H84.6363C84.6496 19.42 84.9029 20.46 85.3963 21.1C85.9029 21.7267 86.6496 22.04 87.6363 22.04C88.3029 22.04 88.8429 21.9333 89.2563 21.72C89.6696 21.5067 90.0563 21.1933 90.4163 20.78L90.6163 20.96C90.2029 21.6933 89.6496 22.2667 88.9563 22.68C88.2763 23.0933 87.4563 23.3 86.4963 23.3C85.5496 23.3 84.7096 23.1 83.9763 22.7C83.2429 22.2867 82.6696 21.7 82.2563 20.94C81.8429 20.18 81.6363 19.2733 81.6363 18.22C81.6363 17.1267 81.8763 16.2 82.3563 15.44C82.8363 14.6667 83.4496 14.08 84.1963 13.68C84.9563 13.28 85.7496 13.08 86.5763 13.08ZM86.5163 13.48C86.1296 13.48 85.7963 13.6 85.5163 13.84C85.2496 14.0667 85.0363 14.48 84.8763 15.08C84.7296 15.6667 84.6496 16.5 84.6363 17.58H88.0563C88.1896 16.1267 88.1363 15.08 87.8963 14.44C87.6563 13.8 87.1963 13.48 86.5163 13.48ZM91.4405 23V22.8L91.6805 22.72C92.1605 22.56 92.4005 22.2267 92.4005 21.72V11.02C92.4005 10.7533 92.3471 10.5533 92.2405 10.42C92.1338 10.2733 91.9471 10.1667 91.6805 10.1L91.4205 10.04V9.84L95.0805 8.98L95.3205 9.16L95.2405 11.96V18.8C95.2405 19.2933 95.2405 19.7867 95.2405 20.28C95.2538 20.76 95.2605 21.24 95.2605 21.72C95.2605 21.9867 95.3138 22.2067 95.4205 22.38C95.5271 22.54 95.7071 22.66 95.9605 22.74L96.2205 22.8V23H91.4405ZM101.499 23V22.8L101.919 22.66C102.185 22.5667 102.359 22.4467 102.439 22.3C102.519 22.14 102.559 21.92 102.559 21.64V11.18C102.559 10.9133 102.519 10.7067 102.439 10.56C102.372 10.4 102.212 10.2733 101.959 10.18L101.499 10V9.8H107.219C108.792 9.8 109.999 10.1 110.839 10.7C111.679 11.2867 112.099 12.1067 112.099 13.16C112.099 13.7467 111.879 14.3333 111.439 14.92C110.999 15.5067 110.305 15.96 109.359 16.28L112.139 21.8C112.259 22.0267 112.392 22.2133 112.539 22.36C112.699 22.4933 112.905 22.6133 113.159 22.72L113.419 22.82V23H109.839L106.879 16.7H105.519V21.64C105.519 21.8933 105.559 22.1 105.639 22.26C105.719 22.42 105.885 22.54 106.139 22.62L106.619 22.8V23H101.499ZM105.519 16.3H106.479C107.439 16.3 108.132 16.0467 108.559 15.54C108.985 15.02 109.199 14.2533 109.199 13.24C109.199 12.2133 108.999 11.4533 108.599 10.96C108.199 10.4533 107.525 10.2 106.579 10.2H105.519V16.3ZM118.725 13.08C119.591 13.08 120.331 13.26 120.945 13.62C121.558 13.9667 122.025 14.4467 122.345 15.06C122.678 15.66 122.845 16.3467 122.845 17.12C122.845 17.2667 122.838 17.42 122.825 17.58C122.811 17.7267 122.785 17.86 122.745 17.98H116.785C116.798 19.42 117.051 20.46 117.545 21.1C118.051 21.7267 118.798 22.04 119.785 22.04C120.451 22.04 120.991 21.9333 121.405 21.72C121.818 21.5067 122.205 21.1933 122.565 20.78L122.765 20.96C122.351 21.6933 121.798 22.2667 121.105 22.68C120.425 23.0933 119.605 23.3 118.645 23.3C117.698 23.3 116.858 23.1 116.125 22.7C115.391 22.2867 114.818 21.7 114.405 20.94C113.991 20.18 113.785 19.2733 113.785 18.22C113.785 17.1267 114.025 16.2 114.505 15.44C114.985 14.6667 115.598 14.08 116.345 13.68C117.105 13.28 117.898 13.08 118.725 13.08ZM118.665 13.48C118.278 13.48 117.945 13.6 117.665 13.84C117.398 14.0667 117.185 14.48 117.025 15.08C116.878 15.6667 116.798 16.5 116.785 17.58H120.205C120.338 16.1267 120.285 15.08 120.045 14.44C119.805 13.8 119.345 13.48 118.665 13.48ZM123.841 23V22.8L124.121 22.72C124.588 22.5867 124.821 22.26 124.821 21.74V15.48C124.821 15.1867 124.775 14.9733 124.681 14.84C124.588 14.6933 124.408 14.5933 124.141 14.54L123.841 14.46V14.26L127.261 13.1L127.461 13.3L127.621 14.5C128.088 14.0867 128.615 13.7467 129.201 13.48C129.788 13.2133 130.368 13.08 130.941 13.08C131.821 13.08 132.495 13.32 132.961 13.8C133.441 14.28 133.681 15.0133 133.681 16V21.76C133.681 22.28 133.935 22.6067 134.441 22.74L134.621 22.8V23H129.901V22.8L130.161 22.72C130.628 22.5733 130.861 22.2467 130.861 21.74V15.36C130.861 14.5067 130.435 14.08 129.581 14.08C128.995 14.08 128.355 14.3733 127.661 14.96V21.76C127.661 22.28 127.895 22.6067 128.361 22.74L128.541 22.8V23H123.841ZM139.106 23.3C138.253 23.3 137.586 23.0867 137.106 22.66C136.64 22.2333 136.406 21.5533 136.406 20.62V13.78H135.026V13.58L135.506 13.5C135.92 13.4067 136.273 13.2733 136.566 13.1C136.873 12.9267 137.173 12.6933 137.466 12.4L139.106 10.58H139.306L139.246 13.38H141.486V13.78H139.226V20.98C139.226 21.4467 139.326 21.8 139.526 22.04C139.74 22.28 140.006 22.4 140.326 22.4C140.606 22.4 140.853 22.3333 141.066 22.2C141.28 22.0533 141.493 21.86 141.706 21.62L141.906 21.82C141.64 22.2733 141.273 22.6333 140.806 22.9C140.34 23.1667 139.773 23.3 139.106 23.3Z" fill="#122C91"/>
<circle cx="16" cy="16" r="14" fill="#122C91"/>
<circle cx="16" cy="16" r="5.5" stroke="#F2F8FC"/>
<path d="M8.13173 24.3952C3.6407 19.9042 3.6407 12.6228 8.13173 8.13173C12.6228 3.6407 19.9042 3.6407 24.3952 8.13173" stroke="#F2F8FC" stroke-linecap="round"/>
<line x1="11.6247" y1="18.7809" x2="6.62472" y2="22.7809" stroke="#F2F8FC" stroke-width="2"/>
<line x1="11" y1="16" x2="5.00003" y2="16" stroke="#F2F8FC" stroke-width="2"/>
</svg>
