<svg width="30" height="30" viewBox="0 0 30 30" fill="none" xmlns="http://www.w3.org/2000/svg">
<path d="M14.9927 30C23.2141 30 30 23.2108 30 15C30 6.78917 23.1996 0 14.9782 0C6.77139 0 0 6.78917 0 15C0 23.2108 6.78589 30 14.9927 30ZM6.2639 5.90425C7.69937 4.52611 9.46834 3.46712 11.4258 2.87234C10.3963 3.90232 9.52634 5.3675 8.87385 7.13733C7.85887 6.81818 6.97438 6.39749 6.2639 5.90425ZM18.5742 2.88685C20.5317 3.48162 22.2861 4.52611 23.7216 5.91876C23.0111 6.41199 22.1411 6.81818 21.1261 7.15184C20.4737 5.3675 19.6037 3.91683 18.5742 2.88685ZM10.8893 7.64507C11.6868 5.51257 12.7743 3.94584 13.9778 3.38008V7.96422C12.8758 7.9207 11.8463 7.81915 10.8893 7.64507ZM16.0077 3.38008C17.2112 3.94584 18.3132 5.51257 19.0962 7.64507C18.1537 7.81915 17.1097 7.9207 16.0077 7.96422V3.38008ZM2.39246 13.9845C2.59546 11.5329 3.50894 9.26983 4.92992 7.41296C5.7999 8.06576 6.94538 8.63153 8.27936 9.05222C7.90237 10.5464 7.67037 12.2147 7.59787 13.9845H2.39246ZM22.3876 13.9845C22.3296 12.2147 22.0831 10.5464 21.7061 9.05222C23.0401 8.63153 24.1856 8.06576 25.0556 7.41296C26.4766 9.26983 27.39 11.5329 27.593 13.9845H22.3876ZM16.0077 13.9845V9.99516C17.2982 9.95164 18.5452 9.80658 19.6907 9.57447C20.0242 10.9236 20.2562 12.4178 20.3142 13.9845H16.0077ZM9.67134 13.9845C9.74384 12.4178 9.96133 10.9236 10.2948 9.57447C11.4548 9.80658 12.6873 9.95164 13.9778 9.99516V13.9845H9.67134ZM2.39246 16.0155H7.59787C7.65587 17.8143 7.90237 19.4971 8.29386 21.0203C6.97438 21.441 5.8289 21.9923 4.95892 22.6306C3.52344 20.7592 2.59546 18.4816 2.39246 16.0155ZM9.67134 16.0155H13.9778V20.0774C12.7018 20.1209 11.4548 20.266 10.3093 20.4981C9.96133 19.1199 9.74384 17.5967 9.67134 16.0155ZM16.0077 20.0774V16.0155H20.3287C20.2562 17.5967 20.0242 19.1199 19.6762 20.4981C18.5307 20.266 17.2982 20.1209 16.0077 20.0774ZM21.7061 21.0203C22.0831 19.4971 22.3296 17.8143 22.4021 16.0155H27.593C27.39 18.4816 26.4621 20.7592 25.0266 22.6306C24.1566 21.9923 23.0256 21.441 21.7061 21.0203ZM16.0077 22.1083C17.1097 22.1518 18.1247 22.2534 19.0817 22.4275C18.2987 24.5164 17.2112 26.0687 16.0077 26.6344V22.1083ZM10.9183 22.4275C11.8608 22.2534 12.8903 22.1518 13.9778 22.1083V26.6344C12.7888 26.0687 11.7013 24.5164 10.9183 22.4275ZM6.30739 24.1248C7.01788 23.646 7.88787 23.2398 8.88835 22.9207C9.52634 24.6615 10.3963 26.0977 11.3968 27.1132C9.46834 26.5329 7.72837 25.4884 6.30739 24.1248ZM21.1116 22.9207C22.1121 23.2398 22.9821 23.646 23.6926 24.1248C22.2571 25.4884 20.5172 26.5329 18.5887 27.1132C19.6037 26.0977 20.4592 24.6615 21.1116 22.9207Z" fill="#2A6FDB"/>
</svg>
