<svg width="30" height="30" viewBox="0 0 30 30" fill="none" xmlns="http://www.w3.org/2000/svg">
<path d="M14.9927 30C23.2141 30 30 23.2108 30 15C30 6.78917 23.1996 0 14.9782 0C6.77139 0 0 6.78917 0 15C0 23.2108 6.78589 30 14.9927 30ZM16.6167 19.7727C15.6307 20.8172 14.3693 20.8172 13.3833 19.7727L7.62687 13.6364C7.11938 13.0996 7.10488 12.3017 7.56887 11.823C8.10536 11.2863 8.93185 11.2863 9.42484 11.8085L15.0072 17.7418L20.5897 11.8085C21.0681 11.2863 21.8801 11.3008 22.4311 11.823C22.9096 12.2872 22.8951 13.0996 22.3731 13.6364L16.6167 19.7727Z" fill="#2A6FDB"/>
</svg>
