<svg width="40" height="30" viewBox="0 0 40 30" fill="none" xmlns="http://www.w3.org/2000/svg">
<path fill-rule="evenodd" clip-rule="evenodd" d="M28.491 17.1185C30.9819 18.8623 32.7273 21.2248 32.7273 24.3748V29.9998H38.1818C39.1818 29.9998 40 29.156 40 28.1248V24.3748C40 20.2873 33.5091 17.8685 28.491 17.1185Z" fill="#2A6FDB"/>
<path d="M14.5453 15C18.5619 15 21.818 11.6421 21.818 7.5C21.818 3.35786 18.5619 0 14.5453 0C10.5287 0 7.27264 3.35786 7.27264 7.5C7.27264 11.6421 10.5287 15 14.5453 15Z" fill="#2A6FDB"/>
<path fill-rule="evenodd" clip-rule="evenodd" d="M25.4544 15C29.4725 15 32.7271 11.6437 32.7271 7.5C32.7271 3.35625 29.4725 0 25.4544 0C24.5998 0 23.7998 0.187499 23.0362 0.449999C24.5453 2.38125 25.4544 4.8375 25.4544 7.5C25.4544 10.1625 24.5453 12.6187 23.0362 14.55C23.7998 14.8125 24.5998 15 25.4544 15Z" fill="#2A6FDB"/>
<path fill-rule="evenodd" clip-rule="evenodd" d="M14.5454 16.8751C9.69088 16.8751 0 19.3876 0 24.3751V28.1251C0 29.1563 0.818179 30.0001 1.81818 30.0001H27.2726C28.2726 30.0001 29.0908 29.1563 29.0908 28.1251V24.3751C29.0908 19.3876 19.3999 16.8751 14.5454 16.8751Z" fill="#2A6FDB"/>
</svg>
