<svg width="16" height="16" viewBox="0 0 16 16" fill="none" xmlns="http://www.w3.org/2000/svg">
<path d="M16 3C15.376 3.3704 14.124 3.8752 13.388 4.0208C13.3664 4.0264 13.3488 4.0336 13.328 4.0392C12.6776 3.3976 11.7864 3 10.8 3C8.812 3 7.2 4.612 7.2 6.6C7.2 6.7048 7.1912 6.8976 7.2 7C4.5176 7 2.476 5.5952 1.012 3.8C0.8528 4.2 0.7832 4.832 0.7832 5.4256C0.7832 6.5464 1.6592 7.6472 3.0232 8.3296C2.772 8.3944 2.4952 8.4408 2.2072 8.4408C1.7424 8.4408 1.2504 8.3184 0.8 7.9472C0.8 7.9608 0.8 7.9736 0.8 7.988C0.8 9.5544 2.4624 10.6208 3.9408 10.9176C3.6408 11.0944 3.036 11.112 2.7408 11.112C2.5328 11.112 1.7968 11.0168 1.6 10.98C2.0112 12.264 3.4944 12.9856 4.908 13.0112C3.8024 13.8784 3.0352 14.2 0.7712 14.2H0C1.4304 15.1168 3.252 15.8008 5.0776 15.8008C11.0216 15.8008 14.4 11.2704 14.4 7C14.4 6.9312 14.3984 6.7872 14.396 6.6424C14.396 6.628 14.4 6.6144 14.4 6.6C14.4 6.5784 14.3936 6.5576 14.3936 6.536C14.3912 6.4272 14.3888 6.3256 14.3864 6.2728C15.0184 5.8168 15.5664 5.248 16 4.6C15.42 4.8576 14.7976 5.0304 14.144 5.1088C14.8112 4.7088 15.7592 3.7552 16 3Z" fill="#626B7D"/>
</svg>
