<svg width="220" height="90" viewBox="0 0 220 90" fill="none" xmlns="http://www.w3.org/2000/svg">
<path d="M100.664 59.072L96.416 44.792C96.304 44.424 96.184 44.16 96.056 44C95.928 43.824 95.704 43.664 95.384 43.52L95.096 43.4V43.16H101.456V43.4L100.952 43.592C100.584 43.736 100.336 43.912 100.208 44.12C100.08 44.328 100.072 44.616 100.184 44.984L102.8 54.968L105.632 46.592L105.08 44.888C104.968 44.552 104.864 44.296 104.768 44.12C104.672 43.944 104.512 43.8 104.288 43.688L103.76 43.4V43.16H109.784V43.4L109.04 43.688C108.72 43.8 108.536 43.968 108.488 44.192C108.456 44.4 108.496 44.672 108.608 45.008L111.656 55.208L114.536 45.2C114.648 44.816 114.688 44.48 114.656 44.192C114.624 43.904 114.424 43.696 114.056 43.568L113.552 43.4V43.16H116.888V43.4L116.264 43.64C115.944 43.752 115.72 43.928 115.592 44.168C115.464 44.408 115.352 44.704 115.256 45.056L111.272 59.072H109.616L106.016 47.792L102.32 59.072H100.664ZM117.654 59V58.76L117.942 58.664C118.518 58.472 118.806 58.072 118.806 57.464V44.648C118.806 44.312 118.75 44.064 118.638 43.904C118.526 43.744 118.31 43.624 117.99 43.544L117.63 43.448V43.208L121.854 42.176L122.238 42.392L122.142 45.776V48.776C122.702 48.312 123.302 47.92 123.942 47.6C124.598 47.264 125.318 47.096 126.102 47.096C127.142 47.096 127.966 47.392 128.574 47.984C129.198 48.576 129.51 49.488 129.51 50.72V57.488C129.51 57.808 129.574 58.064 129.702 58.256C129.83 58.448 130.054 58.592 130.374 58.688L130.566 58.76V59H124.95V58.76L125.238 58.688C125.814 58.496 126.102 58.088 126.102 57.464V49.928C126.102 49.288 125.99 48.848 125.766 48.608C125.558 48.368 125.182 48.248 124.638 48.248C124.286 48.248 123.902 48.32 123.486 48.464C123.07 48.592 122.646 48.824 122.214 49.16V57.512C122.214 58.136 122.502 58.536 123.078 58.712L123.27 58.76V59H117.654ZM137.527 47.096C138.567 47.096 139.455 47.312 140.191 47.744C140.927 48.16 141.487 48.736 141.871 49.472C142.271 50.192 142.471 51.016 142.471 51.944C142.471 52.12 142.463 52.304 142.447 52.496C142.431 52.672 142.399 52.832 142.351 52.976H135.199C135.215 54.704 135.519 55.952 136.111 56.72C136.719 57.472 137.615 57.848 138.799 57.848C139.599 57.848 140.247 57.72 140.743 57.464C141.239 57.208 141.703 56.832 142.135 56.336L142.375 56.552C141.879 57.432 141.215 58.12 140.383 58.616C139.567 59.112 138.583 59.36 137.431 59.36C136.295 59.36 135.287 59.12 134.407 58.64C133.527 58.144 132.839 57.44 132.343 56.528C131.847 55.616 131.599 54.528 131.599 53.264C131.599 51.952 131.887 50.84 132.463 49.928C133.039 49 133.775 48.296 134.671 47.816C135.583 47.336 136.535 47.096 137.527 47.096ZM137.455 47.576C136.991 47.576 136.591 47.72 136.255 48.008C135.935 48.28 135.679 48.776 135.487 49.496C135.311 50.2 135.215 51.2 135.199 52.496H139.303C139.463 50.752 139.399 49.496 139.111 48.728C138.823 47.96 138.271 47.576 137.455 47.576ZM149.692 47.096C150.732 47.096 151.62 47.312 152.356 47.744C153.092 48.16 153.652 48.736 154.036 49.472C154.436 50.192 154.636 51.016 154.636 51.944C154.636 52.12 154.628 52.304 154.612 52.496C154.596 52.672 154.564 52.832 154.516 52.976H147.364C147.38 54.704 147.684 55.952 148.276 56.72C148.884 57.472 149.78 57.848 150.964 57.848C151.764 57.848 152.412 57.72 152.908 57.464C153.404 57.208 153.868 56.832 154.3 56.336L154.54 56.552C154.044 57.432 153.38 58.12 152.548 58.616C151.732 59.112 150.748 59.36 149.596 59.36C148.46 59.36 147.452 59.12 146.572 58.64C145.692 58.144 145.004 57.44 144.508 56.528C144.012 55.616 143.764 54.528 143.764 53.264C143.764 51.952 144.052 50.84 144.628 49.928C145.204 49 145.94 48.296 146.836 47.816C147.748 47.336 148.7 47.096 149.692 47.096ZM149.62 47.576C149.156 47.576 148.756 47.72 148.42 48.008C148.1 48.28 147.844 48.776 147.652 49.496C147.476 50.2 147.38 51.2 147.364 52.496H151.468C151.628 50.752 151.564 49.496 151.276 48.728C150.988 47.96 150.436 47.576 149.62 47.576ZM155.529 59V58.76L155.817 58.664C156.393 58.472 156.681 58.072 156.681 57.464V44.624C156.681 44.304 156.617 44.064 156.489 43.904C156.361 43.728 156.137 43.6 155.817 43.52L155.505 43.448V43.208L159.897 42.176L160.185 42.392L160.089 45.752V53.96C160.089 54.552 160.089 55.144 160.089 55.736C160.105 56.312 160.113 56.888 160.113 57.464C160.113 57.784 160.177 58.048 160.305 58.256C160.433 58.448 160.649 58.592 160.953 58.688L161.265 58.76V59H155.529ZM167.598 59V58.76L168.102 58.592C168.422 58.48 168.63 58.336 168.726 58.16C168.822 57.968 168.87 57.704 168.87 57.368V44.816C168.87 44.496 168.822 44.248 168.726 44.072C168.646 43.88 168.454 43.728 168.15 43.616L167.598 43.4V43.16H174.462C176.35 43.16 177.798 43.52 178.806 44.24C179.814 44.944 180.318 45.928 180.318 47.192C180.318 47.896 180.054 48.6 179.526 49.304C178.998 50.008 178.166 50.552 177.03 50.936L180.366 57.56C180.51 57.832 180.67 58.056 180.846 58.232C181.038 58.392 181.286 58.536 181.59 58.664L181.902 58.784V59H177.606L174.054 51.44H172.422V57.368C172.422 57.672 172.47 57.92 172.566 58.112C172.662 58.304 172.862 58.448 173.166 58.544L173.742 58.76V59H167.598ZM172.422 50.96H173.574C174.726 50.96 175.558 50.656 176.07 50.048C176.582 49.424 176.838 48.504 176.838 47.288C176.838 46.056 176.598 45.144 176.118 44.552C175.638 43.944 174.83 43.64 173.694 43.64H172.422V50.96ZM188.27 47.096C189.31 47.096 190.198 47.312 190.934 47.744C191.67 48.16 192.23 48.736 192.614 49.472C193.014 50.192 193.214 51.016 193.214 51.944C193.214 52.12 193.206 52.304 193.19 52.496C193.174 52.672 193.142 52.832 193.094 52.976H185.942C185.958 54.704 186.262 55.952 186.854 56.72C187.462 57.472 188.358 57.848 189.542 57.848C190.342 57.848 190.99 57.72 191.486 57.464C191.982 57.208 192.446 56.832 192.878 56.336L193.118 56.552C192.622 57.432 191.958 58.12 191.126 58.616C190.31 59.112 189.326 59.36 188.174 59.36C187.038 59.36 186.03 59.12 185.15 58.64C184.27 58.144 183.582 57.44 183.086 56.528C182.59 55.616 182.342 54.528 182.342 53.264C182.342 51.952 182.63 50.84 183.206 49.928C183.782 49 184.518 48.296 185.414 47.816C186.326 47.336 187.278 47.096 188.27 47.096ZM188.198 47.576C187.734 47.576 187.334 47.72 186.998 48.008C186.678 48.28 186.422 48.776 186.23 49.496C186.054 50.2 185.958 51.2 185.942 52.496H190.046C190.206 50.752 190.142 49.496 189.854 48.728C189.566 47.96 189.014 47.576 188.198 47.576ZM194.41 59V58.76L194.746 58.664C195.306 58.504 195.586 58.112 195.586 57.488V49.976C195.586 49.624 195.53 49.368 195.418 49.208C195.306 49.032 195.09 48.912 194.77 48.848L194.41 48.752V48.512L198.514 47.12L198.754 47.36L198.946 48.8C199.506 48.304 200.138 47.896 200.842 47.576C201.546 47.256 202.242 47.096 202.93 47.096C203.986 47.096 204.794 47.384 205.354 47.96C205.93 48.536 206.218 49.416 206.218 50.6V57.512C206.218 58.136 206.522 58.528 207.13 58.688L207.346 58.76V59H201.682V58.76L201.994 58.664C202.554 58.488 202.834 58.096 202.834 57.488V49.832C202.834 48.808 202.322 48.296 201.298 48.296C200.594 48.296 199.826 48.648 198.994 49.352V57.512C198.994 58.136 199.274 58.528 199.834 58.688L200.05 58.76V59H194.41ZM212.728 59.36C211.704 59.36 210.904 59.104 210.328 58.592C209.768 58.08 209.488 57.264 209.488 56.144V47.936H207.832V47.696L208.408 47.6C208.904 47.488 209.328 47.328 209.68 47.12C210.048 46.912 210.408 46.632 210.76 46.28L212.728 44.096H212.968L212.896 47.456H215.584V47.936H212.872V56.576C212.872 57.136 212.992 57.56 213.232 57.848C213.488 58.136 213.808 58.28 214.192 58.28C214.528 58.28 214.824 58.2 215.08 58.04C215.336 57.864 215.592 57.632 215.848 57.344L216.088 57.584C215.768 58.128 215.328 58.56 214.768 58.88C214.208 59.2 213.528 59.36 212.728 59.36Z" fill="#122C91"/>
<path d="M41.7805 25.2503C43.2373 21.7563 43.9657 20.0093 45.1788 19.9092C45.2883 19.9002 45.3982 19.9002 45.5077 19.9092C46.7208 20.0093 47.4492 21.7563 48.906 25.2503L51.8979 32.4261C52.8645 34.7444 53.3478 35.9036 54.2135 36.7542C54.2992 36.8385 54.3875 36.9201 54.4781 36.999C55.3934 37.7962 56.5866 38.188 58.973 38.9717L65.996 41.2781C70.4185 42.7305 72.6298 43.4566 72.7453 44.7701C72.7556 44.8868 72.7556 45.004 72.7453 45.1207C72.6298 46.4342 70.4185 47.1603 65.996 48.6127L58.973 50.9191C56.5866 51.7028 55.3934 52.0946 54.4781 52.8918C54.3875 52.9707 54.2992 53.0523 54.2135 53.1366C53.3478 53.9872 52.8645 55.1464 51.8979 57.4647L48.906 64.6405C47.4492 68.1345 46.7208 69.8815 45.5077 69.9816C45.3982 69.9906 45.2883 69.9906 45.1788 69.9816C43.9657 69.8815 43.2373 68.1345 41.7805 64.6405L38.7886 57.4647C37.822 55.1464 37.3387 53.9872 36.473 53.1366C36.3872 53.0523 36.299 52.9707 36.2084 52.8918C35.2931 52.0946 34.0999 51.7028 31.7135 50.9191L24.6905 48.6127C20.268 47.1603 18.0567 46.4342 17.9412 45.1207C17.9309 45.004 17.9309 44.8868 17.9412 44.7701C18.0567 43.4566 20.268 42.7305 24.6905 41.2781L31.7135 38.9717C34.0999 38.188 35.2931 37.7962 36.2084 36.999C36.299 36.9201 36.3872 36.8385 36.473 36.7542C37.3387 35.9036 37.822 34.7444 38.7886 32.4261L41.7805 25.2503Z" fill="url(#paint0_linear_118_1677)"/>
<path d="M59.3355 27.8934C61.1517 26.6936 63.3064 28.8483 62.1066 30.6645L53.365 43.8976C52.9233 44.5662 52.9233 45.4338 53.365 46.1024L62.1066 59.3355C63.3064 61.1517 61.1517 63.3064 59.3355 62.1066L46.1024 53.365C45.4338 52.9233 44.5662 52.9233 43.8976 53.365L30.6645 62.1066C28.8483 63.3064 26.6936 61.1517 27.8934 59.3355L36.635 46.1024C37.0767 45.4338 37.0767 44.5662 36.635 43.8976L27.8934 30.6645C26.6936 28.8483 28.8483 26.6936 30.6645 27.8934L43.8976 36.635C44.5662 37.0767 45.4338 37.0767 46.1024 36.635L59.3355 27.8934Z" fill="url(#paint1_linear_118_1677)"/>
<defs>
<linearGradient id="paint0_linear_118_1677" x1="29.8311" y1="0.795419" x2="71.9923" y2="108.983" gradientUnits="userSpaceOnUse">
<stop stop-color="#C7D3EC"/>
<stop offset="1" stop-color="#2A6FDB"/>
</linearGradient>
<linearGradient id="paint1_linear_118_1677" x1="24.1875" y1="39.9375" x2="82.9688" y2="34.5938" gradientUnits="userSpaceOnUse">
<stop stop-color="#122C91"/>
<stop offset="0.788333" stop-color="#2A6FDB"/>
</linearGradient>
</defs>
</svg>
