<svg width="24" height="24" viewBox="0 0 24 24" fill="none" xmlns="http://www.w3.org/2000/svg">
<path d="M12 0C5.3724 0 0 5.3724 0 12C0 18.6276 5.3724 24 12 24C18.6276 24 24 18.6276 24 12C24 5.3724 18.6276 0 12 0ZM12.0492 3.75234C12.48 3.75234 12.8297 4.09967 12.8297 4.53047V6.05156C13.2725 6.07436 13.6871 6.123 14.0555 6.225C14.5283 6.3558 14.9302 6.55734 15.2578 6.82734C15.5854 7.09974 15.8338 7.44116 16.0078 7.85156C16.1794 8.26196 16.2656 8.74434 16.2656 9.30234C16.2656 9.57594 16.2377 9.83784 16.1789 10.0898C16.1225 10.3418 16.0318 10.5757 15.9094 10.7953C15.7846 11.0149 15.6314 11.2119 15.4406 11.3883C15.2534 11.5659 15.0272 11.7149 14.7656 11.8289C15.0716 11.9165 15.3314 12.0486 15.5438 12.225C15.7574 12.4026 15.9297 12.6097 16.0617 12.8461C16.1937 13.0825 16.2877 13.3376 16.3477 13.6148C16.4077 13.8896 16.4367 14.1741 16.4367 14.4633C16.4379 15.6213 16.12 16.4955 15.4828 17.0859C14.8672 17.6571 13.9793 17.9456 12.8297 17.9648V19.4086C12.8297 19.8394 12.48 20.1867 12.0492 20.1867C11.6184 20.1867 11.2688 19.8394 11.2688 19.4086V17.9719H9.95859C9.29619 17.9719 8.75859 17.4343 8.75859 16.7719V7.22813C8.75859 6.56573 9.29619 6.02813 9.95859 6.02813H11.2688V4.53047C11.2688 4.09967 11.6184 3.75234 12.0492 3.75234ZM11.1727 8.03672V11.0227H12.4289C12.9101 11.0239 13.2649 10.8996 13.4977 10.65C13.7293 10.4016 13.8469 10.0367 13.8469 9.55547C13.8469 9.01427 13.7372 8.62703 13.5188 8.39063C13.3004 8.15423 12.9443 8.03672 12.4523 8.03672H11.1727ZM11.1727 12.7781V15.9703H12.7148C12.95 15.9703 13.1492 15.9323 13.3172 15.8555C13.484 15.7799 13.6193 15.6689 13.7273 15.5297C13.8329 15.3893 13.9125 15.2282 13.9617 15.0422C14.0109 14.8562 14.0344 14.6502 14.0344 14.4258C14.0344 13.917 13.9427 13.5163 13.7531 13.2211C13.5659 12.9271 13.2457 12.7781 12.7969 12.7781H11.1727Z" fill="#626B7D"/>
</svg>
