<svg width="30" height="24" viewBox="0 0 30 24" fill="none" xmlns="http://www.w3.org/2000/svg">
<path d="M3 0C1.3425 0 0 1.3425 0 3V21C0 22.6575 1.3425 24 3 24H27C28.6575 24 30 22.6575 30 21V3C30 1.3425 28.6575 0 27 0H3ZM12 6C13.0995 6 14.1179 6.31603 15.0029 6.83203C15.8894 6.31753 16.9035 6 18 6C21.309 6 24 8.691 24 12C24 15.309 21.309 18 18 18C16.9035 18 15.8894 17.684 15.0029 17.168C14.1179 17.684 13.0995 18 12 18C8.6865 18 6 15.3135 6 12C6 8.6865 8.6865 6 12 6ZM18 9C17.7315 9 17.477 9.04533 17.2295 9.11133C17.7065 9.97233 18 10.947 18 12C18 13.053 17.7065 14.0277 17.2295 14.8887C17.477 14.9547 17.7315 15 18 15C19.6545 15 21 13.6545 21 12C21 10.3455 19.6545 9 18 9Z" fill="#626B7D"/>
</svg>
