<svg width="30" height="24" viewBox="0 0 30 24" fill="none" xmlns="http://www.w3.org/2000/svg">
<path d="M3 0C1.3425 0 0 1.3425 0 3V21C0 22.6575 1.3425 24 3 24H27C28.6575 24 30 22.6575 30 21V3C30 1.3425 28.6575 0 27 0H3ZM18.583 7.5C19.513 7.5 20.5986 7.96582 20.5986 7.96582L20.1328 9.82617C20.1328 9.82617 19.357 9.20508 18.583 9.20508C17.4985 9.20508 17.1885 9.67172 17.1885 10.1367C17.1885 11.2212 20.2881 11.3734 20.2881 13.5439C20.2866 15.4009 18.1177 16.6414 16.7227 16.4854C15.1732 16.4854 14.3994 16.0225 14.3994 16.0225L14.71 14.1621C14.71 14.1621 15.6389 14.6279 16.8779 14.6279C18.1169 14.6279 18.2725 14.1606 18.2725 13.8516C18.2725 12.4566 15.1729 12.9223 15.1729 10.1338C15.1729 8.73879 16.258 7.5 18.583 7.5ZM8.82129 7.65527H10.9893L7.73438 16.333H5.41113L3.70605 9.36035C3.70605 9.36035 5.56589 10.4441 6.65039 13.0781C6.65039 13.3886 6.80566 13.8545 6.80566 13.8545L8.82129 7.65527ZM23.8506 7.65527H26.1738L27.8789 16.333H26.0186L25.708 15.0938H22.9189L22.4561 16.333H20.2852L23.8506 7.65527ZM11.918 7.80762H14.2412L12.8467 16.4854H10.6787L11.918 7.80762ZM1.07227 7.81055H4.48242C5.41242 7.81055 5.72168 8.58398 5.72168 8.58398L6.49512 12.457C5.56512 9.20353 1.07227 7.81055 1.07227 7.81055ZM24.624 10.2891L23.3848 13.5439H25.2422L24.624 10.2891Z" fill="#626B7D"/>
</svg>
